<svg width="120" height="178" viewBox="0 0 120 178" fill="none" xmlns="http://www.w3.org/2000/svg">
<path d="M30.006 178C46.5627 178 60 164.709 60 148.333V118.667H30.006C13.4493 118.667 0.0120239 131.957 0.0120239 148.333C0.0120239 164.709 13.4493 178 30.006 178Z" fill="#0ACF83"/>
<path d="M0.0120239 89.0001C0.0120239 72.6242 13.4493 59.3335 30.006 59.3335H60V118.667H30.006C13.4493 118.667 0.0120239 105.376 0.0120239 89.0001Z" fill="#A259FF"/>
<path d="M0.012207 29.6667C0.012207 13.2907 13.4495 0 30.0062 0H60.0002V59.3333H30.0062C13.4495 59.3333 0.012207 46.0426 0.012207 29.6667Z" fill="#F24E1E"/>
<path d="M60 0H89.994C106.551 0 119.988 13.2907 119.988 29.6667C119.988 46.0426 106.551 59.3333 89.994 59.3333H60V0Z" fill="#FF7262"/>
<path d="M119.988 89.0001C119.988 105.376 106.551 118.667 89.994 118.667C73.4373 118.667 60 105.376 60 89.0001C60 72.6242 73.4373 59.3335 89.994 59.3335C106.551 59.3335 119.988 72.6242 119.988 89.0001Z" fill="#1ABCFE"/>
</svg>
