<svg width="68" height="70" viewBox="0 0 68 70" fill="none" xmlns="http://www.w3.org/2000/svg">
<path d="M17.243 69.7524C13.199 69.5631 11.0022 68.8703 9.54106 68.2836C7.60496 67.5077 6.22463 66.5839 4.77154 65.0902C3.31845 63.5965 2.41912 62.1755 1.66933 60.1825C1.09941 58.6783 0.426427 56.4169 0.242518 52.254C0.0404197 47.754 0 46.4038 0 35.0031C0 23.6024 0.0444616 22.2543 0.240497 17.7502C0.424406 13.5872 1.10144 11.33 1.66731 9.82168C2.42114 7.82863 3.32047 6.4077 4.76952 4.9098C6.22058 3.41605 7.60092 2.48819 9.53904 1.71635C11.0002 1.12967 13.197 0.436889 17.241 0.24757C21.6144 0.0416085 22.928 0 33.999 0C45.074 0 46.3836 0.0457693 50.759 0.24757C54.803 0.436889 56.9958 1.13383 58.461 1.71635C60.3971 2.48819 61.7774 3.41605 63.2305 4.9098C64.6836 6.40354 65.5789 7.82655 66.3327 9.8196C66.9026 11.3237 67.5756 13.5852 67.7595 17.7481C67.9596 22.2522 68 23.6003 68 35.001C68 46.3976 67.9596 47.7499 67.7595 52.254C67.5756 56.4169 66.8986 58.6783 66.3327 60.1825C65.5789 62.1755 64.6815 63.5965 63.2305 65.0902C61.7794 66.5839 60.3971 67.5077 58.461 68.2836C56.9998 68.8703 54.803 69.5631 50.759 69.7524C46.3876 69.9584 45.074 70 33.999 70C22.928 70 21.6144 69.9605 17.243 69.7524" fill="url(#paint0_radial_106_748)"/>
<path d="M17.243 69.7524C13.199 69.5631 11.0022 68.8703 9.54106 68.2836C7.60496 67.5077 6.22463 66.5839 4.77154 65.0902C3.31845 63.5965 2.41912 62.1755 1.66933 60.1825C1.09941 58.6783 0.426427 56.4169 0.242518 52.254C0.0404197 47.754 0 46.4038 0 35.0031C0 23.6024 0.0444616 22.2543 0.240497 17.7502C0.424406 13.5872 1.10144 11.33 1.66731 9.82168C2.42114 7.82863 3.32047 6.4077 4.76952 4.9098C6.22058 3.41605 7.60092 2.48819 9.53904 1.71635C11.0002 1.12967 13.197 0.436889 17.241 0.24757C21.6144 0.0416085 22.928 0 33.999 0C45.074 0 46.3836 0.0457693 50.759 0.24757C54.803 0.436889 56.9958 1.13383 58.461 1.71635C60.3971 2.48819 61.7774 3.41605 63.2305 4.9098C64.6836 6.40354 65.5789 7.82655 66.3327 9.8196C66.9026 11.3237 67.5756 13.5852 67.7595 17.7481C67.9596 22.2522 68 23.6003 68 35.001C68 46.3976 67.9596 47.7499 67.7595 52.254C67.5756 56.4169 66.8986 58.6783 66.3327 60.1825C65.5789 62.1755 64.6815 63.5965 63.2305 65.0902C61.7794 66.5839 60.3971 67.5077 58.461 68.2836C56.9998 68.8703 54.803 69.5631 50.759 69.7524C46.3876 69.9584 45.074 70 33.999 70C22.928 70 21.6144 69.9605 17.243 69.7524" fill="#FAF8FF"/>
<path d="M25.6513 35.1493C25.6513 30.362 29.4202 26.4802 34.0707 26.4802C38.7212 26.4802 42.4921 30.362 42.4921 35.1493C42.4921 39.9365 38.7212 43.8184 34.0707 43.8184C29.4202 43.8184 25.6513 39.9365 25.6513 35.1493V35.1493ZM21.0988 35.1493C21.0988 42.5244 26.9063 48.5027 34.0707 48.5027C41.2351 48.5027 47.0426 42.5244 47.0426 35.1493C47.0426 27.7742 41.2351 21.7959 34.0707 21.7959C26.9063 21.7959 21.099 27.7738 21.099 35.1493H21.0988ZM44.5248 21.2664C44.5246 21.8836 44.7021 22.4871 45.0351 23.0004C45.368 23.5137 45.8413 23.9139 46.3951 24.1503C46.9489 24.3867 47.5584 24.4488 48.1465 24.3286C48.7346 24.2084 49.2749 23.9114 49.699 23.4752C50.1231 23.0389 50.4121 22.483 50.5293 21.8777C50.6465 21.2724 50.5867 20.6449 50.3575 20.0746C50.1283 19.5043 49.7399 19.0168 49.2415 18.6737C48.7431 18.3306 48.1571 18.1473 47.5575 18.1471H47.5563C46.7526 18.1474 45.982 18.4762 45.4136 19.0611C44.8452 19.6459 44.5255 20.4391 44.5248 21.2664V21.2664ZM23.8647 56.3171C21.4018 56.2017 20.0631 55.7794 19.1734 55.4226C17.994 54.9499 17.1525 54.3869 16.2677 53.4774C15.3829 52.5678 14.8352 51.7024 14.3781 50.4882C14.0313 49.5728 13.621 48.1944 13.509 45.6589C13.3866 42.9178 13.3621 42.0944 13.3621 35.1497C13.3621 28.2051 13.3886 27.3839 13.509 24.6405C13.6212 22.1051 14.0345 20.7293 14.3781 19.8112C14.8372 18.5971 15.3841 17.7308 16.2677 16.82C17.1513 15.9092 17.992 15.3454 19.1734 14.8748C20.0627 14.5178 21.4018 14.0954 23.8647 13.9802C26.5276 13.8541 27.3275 13.8289 34.0707 13.8289C40.8139 13.8289 41.6146 13.8558 44.2797 13.9806C46.7427 14.0961 48.0791 14.5215 48.971 14.8752C50.1504 15.3458 50.992 15.9108 51.8768 16.8204C52.7615 17.7299 53.3072 18.5975 53.7664 19.8116C54.1132 20.727 54.5234 22.1055 54.6354 24.6409C54.7579 27.3843 54.7823 28.2055 54.7823 35.1501C54.7823 42.0948 54.7579 42.9159 54.6354 45.6594C54.5232 48.1948 54.1109 49.5728 53.7664 50.4886C53.3072 51.7028 52.7603 52.5691 51.8768 53.4778C50.9932 54.3865 50.1504 54.9503 48.971 55.423C48.0818 55.78 46.7427 56.2023 44.2797 56.3176C41.6168 56.4436 40.8169 56.4688 34.0707 56.4688C27.3245 56.4688 26.5268 56.4436 23.8647 56.3176V56.3171ZM23.6556 9.30153C20.9663 9.4276 19.1286 9.86657 17.5237 10.5094C15.8627 11.1733 14.4547 12.0639 13.0487 13.509C11.6427 14.954 10.7797 16.4037 10.1348 18.1156C9.51033 19.7687 9.0839 21.6594 8.96143 24.4278C8.83694 27.2006 8.80844 28.0871 8.80844 35.1493C8.80844 42.2115 8.83694 43.098 8.96143 45.8707C9.0839 48.6394 9.51033 50.5298 10.1348 52.1829C10.7797 53.8928 11.6429 55.3452 13.0487 56.7896C14.4545 58.234 15.8607 59.1234 17.5237 59.7892C19.1316 60.432 20.9663 60.871 23.6556 60.997C26.3506 61.1231 27.2103 61.1545 34.0707 61.1545C40.9311 61.1545 41.7923 61.1252 44.4858 60.997C47.1753 60.871 49.0118 60.432 50.6177 59.7892C52.2787 59.1234 53.6867 58.2347 55.0927 56.7896C56.4987 55.3445 57.3599 53.8928 58.0066 52.1829C58.6311 50.5298 59.0595 48.6392 59.18 45.8707C59.3024 43.0959 59.3309 42.2115 59.3309 35.1493C59.3309 28.0871 59.3024 27.2006 59.18 24.4278C59.0575 21.6592 58.6311 19.7677 58.0066 18.1156C57.3599 16.4057 56.4965 14.9563 55.0927 13.509C53.689 12.0616 52.2787 11.1733 50.6197 10.5094C49.0118 9.86657 47.1751 9.42552 44.4878 9.30153C41.7939 9.17483 40.9331 9.14404 34.0737 9.14404C27.2143 9.14404 26.3516 9.17338 23.6566 9.30153" fill="#393441"/>
<defs>
<radialGradient id="paint0_radial_106_748" cx="0" cy="0" r="1" gradientUnits="userSpaceOnUse" gradientTransform="translate(4.40089 68.4665) scale(86.3348 88.874)">
<stop offset="0.09" stop-color="#FAF8FF"/>
<stop offset="0.78" stop-color="#D82D7E"/>
</radialGradient>
</defs>
</svg>
