<svg width="68" height="69" viewBox="0 0 68 69" fill="none" xmlns="http://www.w3.org/2000/svg">
<path d="M0 5.06108C0 2.34379 2.25091 0.138184 5.02563 0.138184H62.9744C65.7502 0.138184 68 2.34379 68 5.06108V63.9401C68 66.6582 65.7502 68.8622 62.9744 68.8622H5.02563C2.25117 68.8622 0 66.6584 0 63.9409V5.06027V5.06108Z" fill="#FAF8FF"/>
<path d="M20.6646 57.6509V26.7111H10.489V57.6509H20.6656H20.6646ZM15.5789 22.4875C19.1266 22.4875 21.3353 20.1117 21.3353 17.1426C21.2689 14.1059 19.1266 11.7964 15.6464 11.7964C12.1638 11.7964 9.88922 14.1059 9.88922 17.1424C9.88922 20.1115 12.0971 22.4873 15.5122 22.4873H15.5781L15.5789 22.4875ZM26.2969 57.6509H36.4717V40.3746C36.4717 39.4511 36.5381 38.5252 36.8069 37.8656C37.5421 36.0173 39.2164 34.104 42.028 34.104C45.709 34.104 47.1825 36.941 47.1825 41.1007V57.6509H57.357V39.9109C57.357 30.408 52.3377 25.9857 45.6432 25.9857C40.1545 25.9857 37.744 29.0861 36.4047 31.1978H36.4724V26.7122H26.2974C26.4302 29.6147 26.2966 57.6519 26.2966 57.6519L26.2969 57.6509Z" fill="#393441"/>
</svg>
