<svg width="192" height="192" viewBox="0 0 192 192" fill="none" xmlns="http://www.w3.org/2000/svg">
<path d="M95.1781 0.0541992C46.5586 0.0541992 49.5944 21.2231 49.5944 21.2231L49.6484 43.1548H96.045V49.7393H31.2203C31.2203 49.7393 0.108765 46.1967 0.108765 95.4503C0.108765 144.705 27.2637 142.959 27.2637 142.959H43.4697V120.102C43.4697 120.102 42.596 92.8384 70.1912 92.8384H116.208C116.208 92.8384 142.062 93.2578 142.062 67.7511V25.5774C142.062 25.5774 145.989 0.0541992 95.1781 0.0541992ZM69.595 14.8028C70.6914 14.8018 71.7772 15.0179 72.7903 15.4387C73.8034 15.8595 74.7239 16.4767 75.4992 17.2551C76.2745 18.0335 76.8892 18.9577 77.3083 19.9749C77.7275 20.9921 77.9427 22.0823 77.9417 23.183C77.9427 24.2838 77.7275 25.374 77.3083 26.3912C76.8892 27.4084 76.2745 28.3326 75.4992 29.111C74.7239 29.8893 73.8034 30.5066 72.7903 30.9274C71.7772 31.3482 70.6914 31.5643 69.595 31.5633C68.4986 31.5643 67.4128 31.3482 66.3997 30.9274C65.3865 30.5066 64.466 29.8893 63.6908 29.111C62.9155 28.3326 62.3007 27.4084 61.8816 26.3912C61.4625 25.374 61.2473 24.2838 61.2483 23.183C61.2473 22.0823 61.4625 20.9921 61.8816 19.9749C62.3007 18.9577 62.9155 18.0335 63.6908 17.2551C64.466 16.4767 65.3865 15.8595 66.3997 15.4387C67.4128 15.0179 68.4986 14.8018 69.595 14.8028V14.8028Z" fill="url(#paint0_linear_106_709)"/>
<path d="M96.5587 191.342C145.178 191.342 142.142 170.173 142.142 170.173L142.088 148.242H95.6911V141.658H160.516C160.516 141.658 191.627 145.2 191.627 95.9449C191.627 46.6905 164.472 48.4374 164.472 48.4374H148.266V71.2929C148.266 71.2929 149.14 98.5569 121.545 98.5569H75.5277C75.5277 98.5569 49.6739 98.1375 49.6739 123.645V165.819C49.6739 165.819 45.748 191.342 96.558 191.342H96.5587ZM122.142 176.595C121.045 176.596 119.96 176.38 118.947 175.959C117.933 175.538 117.013 174.921 116.238 174.142C115.462 173.364 114.848 172.44 114.428 171.423C114.009 170.405 113.794 169.315 113.795 168.215C113.794 167.114 114.009 166.023 114.428 165.006C114.847 163.989 115.462 163.065 116.237 162.286C117.013 161.508 117.933 160.89 118.946 160.469C119.959 160.049 121.045 159.833 122.142 159.834C123.238 159.833 124.324 160.049 125.337 160.469C126.35 160.89 127.271 161.507 128.046 162.286C128.821 163.064 129.436 163.988 129.855 165.006C130.274 166.023 130.49 167.113 130.489 168.214C130.49 169.315 130.274 170.405 129.855 171.422C129.436 172.439 128.821 173.363 128.046 174.142C127.271 174.92 126.35 175.537 125.337 175.958C124.324 176.379 123.238 176.595 122.142 176.594V176.595Z" fill="url(#paint1_linear_106_709)"/>
<defs>
<linearGradient id="paint0_linear_106_709" x1="18.5136" y1="17.2594" x2="113.801" y2="111.219" gradientUnits="userSpaceOnUse">
<stop stop-color="#387EB8"/>
<stop offset="1" stop-color="#366994"/>
</linearGradient>
<linearGradient id="paint1_linear_106_709" x1="76.7698" y1="77.8396" x2="179.079" y2="174.168" gradientUnits="userSpaceOnUse">
<stop stop-color="#FFE052"/>
<stop offset="1" stop-color="#FFC331"/>
</linearGradient>
</defs>
</svg>
