<svg width="207" height="178" viewBox="0 0 207 178" fill="none" xmlns="http://www.w3.org/2000/svg">
<path d="M198.849 136.69C187.805 142.452 130.59 165.995 118.41 172.351C106.229 178.707 99.4627 178.646 89.8399 174.042C80.218 169.438 19.332 144.824 8.36401 139.577C2.88286 136.956 0 134.742 0 132.651V111.715C0 111.715 79.2665 94.4451 92.0631 89.8503C104.859 85.2554 109.299 85.0896 120.188 89.0816C131.08 93.0753 196.195 104.833 206.958 108.778L206.953 129.418C206.955 131.488 204.471 133.758 198.849 136.69" fill="#912626"/>
<path d="M198.845 115.878C187.801 121.637 130.589 145.182 118.408 151.536C106.228 157.893 99.4619 157.831 89.8399 153.227C80.2172 148.627 19.3336 124.009 8.36644 118.765C-2.60071 113.518 -2.83031 109.907 7.94282 105.685C18.7159 101.462 79.2657 77.6865 92.0639 73.0916C104.86 68.4984 109.299 68.331 120.188 72.3246C131.079 76.3167 187.95 98.972 198.711 102.916C209.476 106.866 209.889 110.117 198.845 115.878" fill="#C6302B"/>
<path d="M198.849 102.814C187.805 108.577 130.59 132.119 118.41 138.477C106.229 144.831 99.4627 144.77 89.8399 140.166C80.2172 135.565 19.332 110.948 8.36401 105.701C2.88286 103.08 0 100.869 0 98.7776V77.8392C0 77.8392 79.2665 60.5699 92.0631 55.9751C104.859 51.3803 109.299 51.2136 120.188 55.2065C131.08 59.1993 196.196 70.9546 206.958 74.9005L206.953 95.5429C206.955 97.6117 204.471 99.882 198.849 102.814Z" fill="#912626"/>
<path d="M198.845 82.0021C187.801 87.7628 130.589 111.306 118.408 117.663C106.228 124.017 99.4619 123.955 89.8399 119.351C80.2172 114.751 19.3336 90.1335 8.36644 84.8889C-2.60071 79.6436 -2.83031 76.0318 7.94282 71.8084C18.7159 67.5873 79.2665 43.8106 92.0639 39.2166C104.86 34.6225 109.299 34.4559 120.188 38.4487C131.079 42.4408 187.95 65.0945 198.711 69.0405C209.476 72.9888 209.889 76.2414 198.845 82.0021" fill="#C6302B"/>
<path d="M198.849 67.6827C187.805 73.4434 130.59 96.988 118.41 103.346C106.229 109.7 99.4627 109.638 89.8399 105.034C80.2172 100.433 19.332 75.8157 8.36401 70.5711C2.88286 67.9473 0 65.736 0 63.6469V42.7076C0 42.7076 79.2665 25.4392 92.0631 20.8452C104.859 16.2495 109.299 16.0845 120.188 20.0765C131.08 24.0694 196.196 35.8247 206.958 39.7706L206.953 60.4122C206.955 62.4794 204.471 64.7497 198.849 67.6827Z" fill="#912626"/>
<path d="M198.845 46.8708C187.801 52.6315 130.589 76.1761 118.408 82.5307C106.228 88.8853 99.4618 88.823 89.8399 84.2217C80.218 79.6179 19.3336 55.0021 8.36723 49.7568C-2.60072 44.5123 -2.82951 40.8997 7.94281 36.677C18.7159 32.4552 79.2664 8.68168 92.0639 4.08604C104.86 -0.508789 109.299 -0.673843 120.188 3.31902C131.079 7.31189 187.95 29.9656 198.711 33.9116C209.476 37.8567 209.889 41.1101 198.845 46.8708" fill="#C6302B"/>
<path d="M128.769 26.5033L110.976 28.3521L106.992 37.9447L100.559 27.2404L80.0127 25.3924L95.3438 19.8591L90.7438 11.3652L105.097 16.9836L118.629 12.5497L114.972 21.3324L128.769 26.5033V26.5033ZM105.93 73.0406L72.7223 59.2561L120.306 51.946L105.93 73.0406V73.0406ZM59.8901 31.8352C73.9366 31.8352 85.3233 36.2529 85.3233 41.7013C85.3233 47.1513 73.9366 51.5681 59.8901 51.5681C45.8436 51.5681 34.4569 47.1505 34.4569 41.7013C34.4569 36.2529 45.8436 31.8352 59.8901 31.8352Z" fill="white"/>
<path d="M149.798 29.1258L177.96 40.2638L149.822 51.3912L149.798 29.125" fill="#621B1C"/>
<path d="M118.641 41.4601L149.798 29.1255L149.822 51.3909L146.767 52.5868L118.641 41.4601Z" fill="#9A2928"/>
</svg>
