<svg width="248" height="185" viewBox="0 0 248 185" fill="none" xmlns="http://www.w3.org/2000/svg">
<g clip-path="url(#clip0_106_722)">
<path d="M213.416 106.278C204.745 106.327 197.237 108.398 190.941 111.482C188.616 106.905 186.291 102.906 185.904 99.9195C185.468 96.4508 184.935 94.3305 185.468 90.1877C186 86.044 188.422 80.1664 188.422 79.6847C188.373 79.2511 187.889 77.1313 182.9 77.0831C177.911 77.0349 173.6 78.0466 173.116 79.3474C172.631 80.6482 171.662 83.6352 171.033 86.7185C170.161 91.2472 161.055 107.29 155.872 115.721C154.176 112.445 152.723 109.554 152.432 107.241C151.997 103.773 151.464 101.653 151.997 97.5102C152.53 93.3665 154.951 87.4894 154.951 87.0076C154.903 86.574 154.419 84.4542 149.43 84.406C144.441 84.3578 140.13 85.3696 139.646 86.6703C139.161 87.9711 138.629 91.0544 137.563 94.0414C136.545 97.0284 124.436 123.815 121.287 130.801C119.689 134.366 118.285 137.208 117.267 139.135C116.25 141.062 117.219 139.28 117.122 139.472C116.25 141.11 115.766 142.026 115.766 142.026V142.074C115.087 143.279 114.361 144.435 114.021 144.435C113.779 144.435 113.295 141.207 114.118 136.775C115.91 127.476 120.27 112.975 120.222 112.446C120.222 112.205 121.045 109.651 117.412 108.35C113.876 107.05 112.617 109.218 112.326 109.218C112.035 109.218 111.793 109.989 111.793 109.989C111.793 109.989 115.717 93.657 104.285 93.657C97.1167 93.657 87.2354 101.413 82.3432 108.496C79.2432 110.182 72.6557 113.746 65.6807 117.553C63.0167 118.998 60.2557 120.54 57.6401 121.937L57.1078 121.358C43.2547 106.664 17.6312 96.2576 18.6969 76.505C19.0844 69.3266 21.6031 50.393 67.9098 27.4607C105.836 8.67168 136.207 13.8266 141.486 25.2928C148.994 41.673 125.259 72.1209 85.8317 76.505C70.8161 78.1912 62.9203 72.4099 60.9348 70.242C58.852 67.9776 58.5614 67.8813 57.7864 68.3149C56.527 68.9894 57.302 71.0128 57.7864 72.2172C58.9489 75.2524 63.7926 80.6482 72.027 83.3461C79.2437 85.7068 96.8754 87.0076 118.188 78.8175C142.068 69.6157 160.716 44.0818 155.243 22.7394C149.672 1.01152 113.441 -6.11868 79.1958 5.97376C58.8031 13.2003 36.7156 24.4738 20.8281 39.2641C1.93749 56.8006 -1.06563 72.1209 0.193745 78.4802C4.60204 101.172 36.0375 115.962 48.6312 126.898C48.0015 127.235 47.4203 127.572 46.8875 127.862C40.5906 130.945 16.6141 143.423 10.6078 156.623C3.82656 171.558 11.6734 182.302 16.9047 183.747C33.0828 188.228 49.6484 180.182 58.6093 166.933C67.5214 153.685 66.4562 136.485 62.339 128.633L62.1932 128.344L67.1339 125.453C70.3312 123.574 73.4797 121.84 76.2401 120.346C74.6906 124.537 73.576 129.499 72.9953 136.726C72.3172 145.205 75.8047 156.189 80.4062 160.525C82.4406 162.404 84.8625 162.452 86.364 162.452C91.6921 162.452 94.114 158.068 96.7781 152.817C100.072 146.409 102.978 138.99 102.978 138.99C102.978 138.99 99.3453 159.08 109.275 159.08C112.908 159.08 116.541 154.407 118.187 151.998V152.046C118.187 152.046 118.284 151.902 118.478 151.564C118.681 151.265 118.875 150.96 119.059 150.649V150.553C120.512 148.048 123.758 142.315 128.602 132.824C134.849 120.587 140.856 105.267 140.856 105.267C140.856 105.267 141.437 109.024 143.23 115.191C144.295 118.853 146.62 122.851 148.412 126.754C146.959 128.777 146.087 129.934 146.087 129.934L146.135 129.982C144.973 131.524 143.665 133.162 142.309 134.8C137.369 140.677 131.459 147.374 130.684 149.301C129.764 151.565 129.958 153.252 131.75 154.601C133.058 155.565 135.383 155.757 137.853 155.565C142.309 155.275 145.409 154.167 146.959 153.492C149.381 152.625 152.142 151.324 154.806 149.397C159.65 145.833 162.605 140.774 162.314 134.029C162.169 130.32 160.958 126.658 159.456 123.19C159.892 122.563 160.329 121.936 160.764 121.262C168.417 110.133 174.326 97.8966 174.326 97.8966C174.326 97.8966 174.908 101.654 176.7 107.821C177.62 110.953 179.461 114.374 181.108 117.746C173.939 123.575 169.434 130.32 167.884 134.753C165.026 142.943 167.255 146.652 171.469 147.519C173.357 147.905 176.07 147.038 178.104 146.17C180.623 145.351 183.674 143.954 186.484 141.883C191.328 138.318 195.978 133.355 195.736 126.659C195.591 123.575 194.767 120.54 193.653 117.65C199.756 115.144 207.651 113.699 217.678 114.904C239.233 117.409 243.495 130.802 242.672 136.391C241.849 141.98 237.344 145.062 235.842 146.026C234.341 146.941 233.856 147.279 234.001 147.953C234.195 148.965 234.873 148.917 236.181 148.724C237.973 148.435 247.516 144.148 247.903 133.838C248.484 120.587 235.842 106.134 213.416 106.278V106.278ZM47.1781 162.019C40.0578 169.776 30.0312 172.715 25.7687 170.209C21.1672 167.56 22.9589 156.142 31.7265 147.903C37.0547 142.893 43.9812 138.268 48.5343 135.426C49.5515 134.799 51.1015 133.884 52.9422 132.776C53.2328 132.584 53.4265 132.487 53.4265 132.487C53.7656 132.294 54.1531 132.053 54.5406 131.812C57.7859 143.567 54.6859 153.877 47.1781 162.019V162.019ZM99.2484 126.802C96.7781 132.824 91.5468 148.289 88.3984 147.422C85.6854 146.699 84.039 134.992 87.8651 123.429C89.8026 117.6 93.9198 110.663 96.3417 107.964C100.266 103.628 104.528 102.183 105.594 103.965C106.853 106.278 100.798 123.044 99.2484 126.802ZM142.212 147.229C141.147 147.759 140.178 148.144 139.742 147.856C139.403 147.663 140.178 146.94 140.178 146.94C140.178 146.94 145.554 141.207 147.685 138.558C148.896 137.016 150.349 135.234 151.899 133.21V133.788C151.9 140.725 145.216 145.35 142.212 147.229ZM175.343 139.713C174.568 139.135 174.666 137.353 177.281 131.764C178.298 129.548 180.623 125.838 184.643 122.321C185.128 123.767 185.419 125.163 185.37 126.465C185.322 135.136 179.122 138.364 175.343 139.713Z" fill="#CF649A"/>
</g>
<defs>
<clipPath id="clip0_106_722">
<rect width="248" height="185" fill="white"/>
</clipPath>
</defs>
</svg>
