<svg width="70" height="69" viewBox="0 0 70 69" fill="none" xmlns="http://www.w3.org/2000/svg">
<g clip-path="url(#clip0_106_745)">
<path d="M35 69C54.33 69 70.0001 53.5539 70.0001 34.5C70.0001 15.4462 54.33 0 35 0C15.6701 0 3.05176e-05 15.4462 3.05176e-05 34.5C3.05176e-05 53.5539 15.6701 69 35 69Z" fill="#FAF8FF"/>
<path d="M46.3805 10.5898H38.6272C34.0261 10.5898 28.9083 12.4974 28.9083 19.0716C28.9308 21.3623 28.9083 23.5561 28.9083 26.0251H23.5855V34.3743H29.0731V58.4104H39.1567V34.2157H45.8123L46.4145 26.0017H38.983C38.983 26.0017 38.9996 22.3477 38.983 21.2866C38.983 18.6886 41.7255 18.8374 41.8904 18.8374C43.1955 18.8374 45.7329 18.8411 46.3843 18.8374V10.5898H46.3805Z" fill="#393441"/>
</g>
<defs>
<clipPath id="clip0_106_745">
<rect width="70" height="69" fill="white"/>
</clipPath>
</defs>
</svg>
