<svg width="68" height="64" viewBox="0 0 68 64" fill="none" xmlns="http://www.w3.org/2000/svg">
<path d="M33.8685 0C15.1659 0 0 14.6703 0 32.7675C0 47.2453 9.70434 59.5279 23.1614 63.8608C24.854 64.164 25.4756 63.1499 25.4756 62.2844C25.4756 61.5031 25.444 58.9217 25.4296 56.1837C16.0071 58.1659 14.0189 52.3175 14.0189 52.3175C12.4783 48.53 10.2584 47.5231 10.2584 47.5231C7.18569 45.4893 10.4901 45.5309 10.4901 45.5309C13.8911 45.7622 15.682 48.9078 15.682 48.9078C18.7027 53.9173 23.605 52.4689 25.5377 51.6319C25.8416 49.5138 26.7195 48.0685 27.688 47.2502C20.1655 46.4214 12.2573 43.6117 12.2573 31.0562C12.2573 27.4789 13.5803 24.5557 15.747 22.261C15.3954 21.4355 14.2362 18.1029 16.0751 13.5894C16.0751 13.5894 18.9191 12.7087 25.3914 16.9482C28.0928 16.222 30.9902 15.8581 33.8685 15.8458C36.7468 15.8581 39.6464 16.222 42.3531 16.9482C48.8176 12.7087 51.6577 13.5894 51.6577 13.5894C53.5011 18.1029 52.3414 21.4355 51.9897 22.261C54.1612 24.5557 55.4752 27.4787 55.4752 31.0562C55.4752 43.6415 47.5522 46.4129 40.0106 47.224C41.2253 48.2409 42.3077 50.2351 42.3077 53.292C42.3077 57.6763 42.2684 61.205 42.2684 62.2844C42.2684 63.1563 42.878 64.1781 44.595 63.8564C58.0446 59.5187 67.7368 47.2404 67.7368 32.7675C67.7368 14.6703 52.573 0 33.8685 0Z" fill="#FAF8FF"/>
<path d="M12.6849 46.6782C12.6106 46.8409 12.3455 46.8897 12.1045 46.7782C11.8588 46.6713 11.7207 46.4492 11.8004 46.2858C11.8734 46.1182 12.1385 46.0715 12.3837 46.184C12.6299 46.2907 12.7702 46.5148 12.6849 46.6782ZM14.3509 48.1163C14.1894 48.2613 13.8736 48.1939 13.6592 47.965C13.4377 47.7365 13.3963 47.4312 13.5602 47.2839C13.7267 47.1392 14.033 47.2068 14.255 47.4356C14.4766 47.6666 14.5196 47.9701 14.3507 48.1166L14.3509 48.1163ZM15.4939 49.9564C15.2862 50.0959 14.9467 49.9651 14.7371 49.6737C14.5297 49.3825 14.5297 49.033 14.7417 48.8929C14.952 48.7529 15.2862 48.8788 15.4987 49.1679C15.7059 49.4642 15.7059 49.8137 15.4936 49.9566L15.4939 49.9564ZM17.4266 52.0876C17.2409 52.2855 16.8457 52.2325 16.5561 51.9622C16.2602 51.698 16.1776 51.323 16.3638 51.1249C16.5516 50.9265 16.9493 50.9823 17.2409 51.2503C17.535 51.514 17.6248 51.8918 17.4269 52.0876H17.4266ZM19.9245 52.8072C19.843 53.0636 19.4621 53.1803 19.0785 53.0713C18.6955 52.959 18.4447 52.6584 18.522 52.3991C18.6017 52.1408 18.9842 52.0192 19.3707 52.1359C19.7532 52.2477 20.0045 52.5461 19.9248 52.8072H19.9245ZM22.7678 53.1122C22.7774 53.3826 22.452 53.6067 22.0493 53.6115C21.6442 53.62 21.3167 53.4013 21.3124 53.1356C21.3124 52.8627 21.6304 52.6406 22.0352 52.6342C22.4379 52.6265 22.7678 52.8437 22.7678 53.1122ZM25.5606 53.0086C25.6089 53.2723 25.329 53.5432 24.9292 53.6151C24.5361 53.6845 24.1722 53.5219 24.122 53.2605C24.0731 52.9901 24.3584 52.7195 24.7507 52.6494C25.1513 52.582 25.5096 52.7406 25.5606 53.0086Z" fill="#FAF8FF"/>
</svg>
