<svg width="232" height="181" viewBox="0 0 232 181" fill="none" xmlns="http://www.w3.org/2000/svg">
<g clip-path="url(#clip0_106_712)">
<path fill-rule="evenodd" clip-rule="evenodd" d="M48.1871 0.0214844C34.9495 0.0214844 25.1543 11.3661 25.593 23.6691C26.0139 35.4888 25.467 50.7972 21.5311 63.2812C17.5812 75.8002 10.9058 83.7334 0 84.7517V96.248C10.9058 97.2685 17.5812 105.198 21.5307 117.719C25.467 130.202 26.0135 145.511 25.5925 157.331C25.1539 169.632 34.9491 180.978 48.1889 180.978H183.831C197.068 180.978 206.862 169.634 206.423 157.331C206.002 145.511 206.549 130.202 210.485 117.719C214.435 105.198 221.094 97.2654 232 96.248V84.7517C221.094 83.7312 214.435 75.802 210.485 63.2812C206.548 50.799 206.002 35.4888 206.423 23.6691C206.862 11.3679 197.068 0.0214844 183.831 0.0214844H48.1853H48.1871ZM157.288 111.412C157.288 128.353 144.383 138.627 122.966 138.627H86.5084C85.4655 138.627 84.4653 138.221 83.7279 137.499C82.9904 136.777 82.5761 135.798 82.5761 134.777V46.2234C82.5761 45.2023 82.9904 44.223 83.7279 43.5009C84.4653 42.7789 85.4655 42.3733 86.5084 42.3733H122.758C140.616 42.3733 152.337 51.8447 152.337 66.3864C152.337 76.593 144.452 85.7304 134.408 87.3311V87.8636C148.081 89.3321 157.288 98.6048 157.288 111.412V111.412ZM118.991 54.5782H98.2031V83.3279H115.711C129.246 83.3279 136.709 77.9915 136.709 68.453C136.708 59.514 130.292 54.5782 118.991 54.5782ZM98.2031 94.7351V126.418H119.755C133.848 126.418 141.312 120.881 141.312 110.476C141.312 100.072 133.638 94.7333 118.849 94.7333H98.2031V94.7351Z" fill="#7952B3"/>
</g>
<defs>
<clipPath id="clip0_106_712">
<rect width="232" height="181" fill="white"/>
</clipPath>
</defs>
</svg>
