<svg width="145" height="184" viewBox="0 0 145 184" fill="none" xmlns="http://www.w3.org/2000/svg">
<g clip-path="url(#clip0_106_718)">
<path d="M64.7786 0H94.8461V137.812C79.4449 140.725 68.1071 141.872 55.8398 141.872C19.1163 141.833 0 125.427 0 93.9167C0 63.5568 20.2772 43.8532 51.6991 43.8532C56.5751 43.8532 60.2897 44.237 64.7786 45.3866V0ZM65.8322 70.2219C62.3107 69.0718 59.4088 68.6886 55.6936 68.6886C40.486 68.6886 31.7019 77.965 31.7019 94.222C31.7019 110.05 40.0995 118.79 55.5006 118.79C58.828 118.79 61.5369 118.602 65.8322 118.027V70.2219Z" fill="#2BA977"/>
<path d="M144.015 47.5532V116.554C144.015 140.316 142.235 151.744 137.011 161.596C132.135 171.067 125.712 177.04 112.439 183.637L84.5382 170.489C97.8112 164.32 104.235 158.87 108.337 150.552C112.632 142.046 113.986 132.193 113.986 106.28V47.5537H144.015V47.5532ZM110.956 0H141.024V30.5518H110.956V0Z" fill="#2BA977"/>
</g>
<defs>
<clipPath id="clip0_106_718">
<rect width="144.474" height="184" fill="white"/>
</clipPath>
</defs>
</svg>
